<?xml version="1.0" standalone="no"?>
<!DOCTYPE svg PUBLIC "-//W3C//DTD SVG 20010904//EN"
 "http://www.w3.org/TR/2001/REC-SVG-20010904/DTD/svg10.dtd">
<svg version="1.0" xmlns="http://www.w3.org/2000/svg"
 width="700.000000pt" height="700.000000pt" viewBox="0 0 700.000000 700.000000"
 preserveAspectRatio="xMidYMid meet">
<metadata>
Created by potrace 1.11, written by Peter Selinger 2001-2013
</metadata>
<g transform="translate(0.000000,700.000000) scale(0.100000,-0.100000)"
fill="#000000" stroke="none">
<path d="M4224 5879 c-109 -14 -214 -100 -255 -208 -16 -43 -20 -73 -17 -131
5 -127 71 -226 185 -281 l43 -21 -3 -1666 c-3 -1664 -3 -1667 -24 -1739 -90
-308 -331 -539 -648 -624 -100 -27 -308 -37 -398 -19 -309 60 -557 281 -651
578 -33 106 -44 192 -25 192 8 -1 62 -7 122 -14 59 -6 107 -10 107 -7 0 5
-413 497 -437 521 -3 3 -3 -132 0 -300 4 -293 5 -309 31 -400 104 -370 388
-650 755 -747 123 -33 337 -37 469 -9 218 46 407 142 566 287 125 114 246 315
298 494 l23 80 3 1685 2 1685 55 29 c186 97 237 348 103 501 -83 94 -181 131
-304 114z m134 -153 c31 -16 74 -61 91 -94 14 -26 17 -98 6 -133 -21 -71 -101
-129 -176 -129 -197 0 -259 263 -84 354 37 20 127 21 163 2z"/>
</g>
</svg>
